<svg xmlns="http://www.w3.org/2000/svg" fill="none" viewBox="0 0 1200 630">
  <path fill="#FA8EFD" d="M0 0h1200v630H0z"/>
  <path fill="#000" d="M96 96h1040v363H96zm310 415h407v69H406z"/>
  <path fill="#FEEA35" d="M401 506h401v63H401z"/>
  <path stroke="#000" stroke-width="6" d="M401 506h401v63H401z"/>
  <path fill="#000" d="M451.415 534.119a4.504 4.504 0 0 0-.588-1.235 3.79 3.79 0 0 0-.887-.946 3.571 3.571 0 0 0-1.176-.589 4.917 4.917 0 0 0-1.449-.204c-.937 0-1.772.236-2.505.707-.733.472-1.31 1.165-1.73 2.08-.415.909-.623 2.017-.623 3.324 0 1.318.208 2.434.623 3.349.414.915.991 1.611 1.73 2.088.738.472 1.596.708 2.574.708.886 0 1.653-.171 2.301-.512a3.604 3.604 0 0 0 1.508-1.449c.352-.63.529-1.369.529-2.216l.716.111h-4.739v-2.471h7.082v2.096c0 1.495-.318 2.787-.954 3.878a6.53 6.53 0 0 1-2.625 2.523c-1.114.585-2.392.878-3.836.878-1.607 0-3.019-.361-4.235-1.083-1.211-.727-2.157-1.758-2.838-3.094-.677-1.34-1.015-2.931-1.015-4.772 0-1.409.199-2.668.597-3.776.403-1.108.966-2.048 1.687-2.821a7.204 7.204 0 0 1 2.54-1.773c.972-.409 2.029-.613 3.171-.613.966 0 1.866.142 2.701.426a7.149 7.149 0 0 1 2.225 1.193 6.669 6.669 0 0 1 1.611 1.841c.42.71.696 1.494.826 2.352h-3.221Zm10.054 12.145c-.829 0-1.576-.148-2.241-.443a3.65 3.65 0 0 1-1.568-1.33c-.381-.585-.571-1.306-.571-2.164 0-.739.136-1.35.409-1.833a3.173 3.173 0 0 1 1.116-1.159 5.638 5.638 0 0 1 1.594-.656 12.995 12.995 0 0 1 1.85-.332c.767-.08 1.389-.151 1.866-.213.477-.069.824-.171 1.04-.307.221-.142.332-.361.332-.657v-.051c0-.642-.19-1.139-.571-1.491-.381-.352-.929-.529-1.645-.529-.755 0-1.355.165-1.798.495-.438.329-.733.718-.886 1.167l-2.881-.409c.227-.795.602-1.46 1.125-1.994a4.891 4.891 0 0 1 1.918-1.21c.755-.273 1.59-.409 2.505-.409.631 0 1.259.073 1.884.221a5.303 5.303 0 0 1 1.713.733c.517.335.932.793 1.244 1.372.318.58.477 1.304.477 2.174V546h-2.966v-1.798h-.102a3.756 3.756 0 0 1-.792 1.022c-.336.313-.759.566-1.27.759-.506.187-1.1.281-1.782.281Zm.802-2.267c.619 0 1.156-.122 1.61-.366.455-.25.804-.58 1.049-.989.25-.409.375-.855.375-1.338v-1.543c-.097.08-.262.154-.495.222a6.996 6.996 0 0 1-.767.179c-.284.051-.565.097-.843.136l-.725.103c-.46.062-.872.164-1.236.306a2.05 2.05 0 0 0-.86.597c-.211.25-.316.574-.316.972 0 .568.208.997.622 1.286.415.29.944.435 1.586.435Zm9.213 2.003v-13.091h2.991v2.182h.137c.238-.756.647-1.338 1.227-1.747a3.376 3.376 0 0 1 2.003-.622c.17 0 .36.008.571.025.216.012.395.031.537.06v2.838a3.202 3.202 0 0 0-.623-.119 5.683 5.683 0 0 0-.809-.06c-.563 0-1.068.122-1.517.366a2.686 2.686 0 0 0-1.049.998c-.255.426-.383.917-.383 1.474V546h-3.085Zm13.048.264c-.83 0-1.577-.148-2.242-.443a3.657 3.657 0 0 1-1.568-1.33c-.38-.585-.571-1.306-.571-2.164 0-.739.137-1.35.409-1.833a3.167 3.167 0 0 1 1.117-1.159 5.626 5.626 0 0 1 1.594-.656 12.98 12.98 0 0 1 1.849-.332c.767-.08 1.389-.151 1.867-.213.477-.069.823-.171 1.039-.307.222-.142.333-.361.333-.657v-.051c0-.642-.191-1.139-.571-1.491-.381-.352-.929-.529-1.645-.529-.756 0-1.355.165-1.799.495-.437.329-.732.718-.886 1.167l-2.881-.409c.228-.795.603-1.46 1.125-1.994a4.891 4.891 0 0 1 1.918-1.21c.756-.273 1.591-.409 2.506-.409.63 0 1.258.073 1.883.221a5.303 5.303 0 0 1 1.713.733 3.69 3.69 0 0 1 1.245 1.372c.318.58.477 1.304.477 2.174V546h-2.966v-1.798h-.102a3.78 3.78 0 0 1-.793 1.022c-.335.313-.758.566-1.27.759-.505.187-1.099.281-1.781.281Zm.801-2.267c.619 0 1.156-.122 1.611-.366.454-.25.804-.58 1.048-.989.25-.409.375-.855.375-1.338v-1.543c-.096.08-.261.154-.494.222a6.996 6.996 0 0 1-.767.179c-.284.051-.566.097-.844.136l-.724.103a5.348 5.348 0 0 0-1.236.306 2.047 2.047 0 0 0-.861.597c-.21.25-.315.574-.315.972 0 .568.207.997.622 1.286.415.29.943.435 1.585.435Zm9.35 2.003v-17.455h3.085v6.529h.128c.159-.318.383-.656.673-1.014.29-.364.682-.674 1.176-.929.494-.262 1.125-.392 1.892-.392 1.011 0 1.923.258 2.736.775.818.512 1.466 1.27 1.943 2.276.483 1 .724 2.227.724 3.682 0 1.437-.235 2.659-.707 3.664-.471 1.006-1.114 1.773-1.926 2.302-.813.528-1.733.792-2.761.792-.75 0-1.373-.125-1.867-.375s-.892-.551-1.193-.903a5.78 5.78 0 0 1-.69-1.014h-.179V546h-3.034Zm3.025-6.545c0 .846.119 1.588.358 2.224.244.636.594 1.133 1.048 1.491.461.353 1.017.529 1.671.529.682 0 1.253-.182 1.713-.546.46-.369.807-.872 1.04-1.508.238-.642.358-1.372.358-2.19 0-.813-.117-1.535-.35-2.165-.233-.631-.579-1.125-1.04-1.483-.46-.358-1.034-.537-1.721-.537-.659 0-1.219.173-1.679.52-.46.346-.81.832-1.048 1.457-.233.625-.35 1.361-.35 2.208ZM509.663 546v-13.091h3.086V546h-3.086Zm1.551-14.949c-.488 0-.909-.162-1.261-.486-.352-.329-.528-.724-.528-1.184 0-.466.176-.861.528-1.185a1.78 1.78 0 0 1 1.261-.494c.495 0 .915.164 1.262.494.352.324.528.719.528 1.185 0 .46-.176.855-.528 1.184a1.781 1.781 0 0 1-1.262.486Zm11.244 1.858v2.386h-7.525v-2.386h7.525Zm-5.668-3.136h3.086v12.289c0 .415.062.733.187.955.131.216.301.364.512.443.21.08.443.12.698.12.194 0 .37-.015.529-.043.165-.028.29-.054.375-.077l.52 2.412a7.056 7.056 0 0 1-.708.188c-.301.068-.67.108-1.108.119-.772.023-1.468-.094-2.088-.349a3.253 3.253 0 0 1-1.474-1.211c-.358-.545-.534-1.227-.529-2.045v-12.801Zm28.73 7.687V540h-7.858v-2.54h7.858Zm16.202 8.54v-17.455h11.352v2.651h-8.19v4.739h7.602v2.65h-7.602v4.764h8.258V546h-11.42Zm24.788-9.631-2.813.307a2.248 2.248 0 0 0-.417-.801 2.072 2.072 0 0 0-.784-.605c-.33-.154-.733-.23-1.21-.23-.643 0-1.182.139-1.62.417-.432.279-.645.64-.639 1.083-.006.38.134.69.418.929.289.238.767.434 1.431.588l2.233.477c1.239.267 2.159.69 2.762 1.27.608.58.915 1.338.92 2.276a3.555 3.555 0 0 1-.724 2.181c-.472.625-1.128 1.114-1.969 1.466-.841.353-1.807.529-2.898.529-1.602 0-2.892-.336-3.869-1.006-.977-.676-1.56-1.616-1.747-2.821l3.008-.29c.137.591.426 1.037.87 1.338.443.301 1.02.452 1.73.452.733 0 1.321-.151 1.764-.452.449-.301.673-.673.673-1.116 0-.375-.145-.685-.434-.929-.284-.245-.728-.432-1.33-.563l-2.233-.468c-1.256-.262-2.185-.702-2.787-1.321-.602-.625-.9-1.415-.895-2.37-.005-.807.213-1.505.657-2.096.448-.597 1.071-1.057 1.866-1.381.801-.33 1.724-.494 2.77-.494 1.534 0 2.741.326 3.622.98.886.653 1.435 1.537 1.645 2.65Zm9.362-3.46v2.386h-7.525v-2.386h7.525Zm-5.667-3.136h3.085v12.289c0 .415.062.733.187.955.131.216.301.364.512.443.21.08.443.12.699.12.193 0 .369-.015.528-.043.165-.028.29-.054.375-.077l.52 2.412a7.056 7.056 0 0 1-.708.188c-.301.068-.67.108-1.108.119-.772.023-1.468-.094-2.088-.349a3.253 3.253 0 0 1-1.474-1.211c-.358-.545-.534-1.227-.528-2.045v-12.801Zm13.902 16.483c-1.312 0-2.446-.273-3.4-.818a5.55 5.55 0 0 1-2.191-2.336c-.511-1.011-.767-2.201-.767-3.571 0-1.346.256-2.528.767-3.545.517-1.023 1.239-1.818 2.165-2.387.926-.573 2.014-.86 3.264-.86.807 0 1.568.13 2.284.392a5.145 5.145 0 0 1 1.909 1.193c.557.54.995 1.227 1.313 2.062.318.83.477 1.819.477 2.966v.946h-10.73v-2.079h7.773c-.006-.591-.134-1.117-.384-1.577a2.785 2.785 0 0 0-1.048-1.099c-.443-.267-.96-.401-1.551-.401-.631 0-1.185.153-1.662.46a3.173 3.173 0 0 0-1.116 1.193 3.433 3.433 0 0 0-.401 1.611v1.816c0 .761.139 1.414.418 1.96.278.54.667.954 1.167 1.244.5.284 1.085.426 1.756.426.449 0 .855-.062 1.219-.187.363-.131.679-.321.946-.571.267-.25.468-.56.605-.929l2.88.324a4.485 4.485 0 0 1-1.039 1.994c-.506.562-1.154 1-1.944 1.312-.789.307-1.693.461-2.71.461Zm-1.432-15.068 1.91-3.895h3.017l-2.617 3.895h-2.31Zm10 14.812v-17.455h3.085v6.529h.128c.159-.318.383-.656.673-1.014.29-.364.682-.674 1.176-.929.495-.262 1.125-.392 1.892-.392 1.012 0 1.924.258 2.736.775.818.512 1.466 1.27 1.943 2.276.483 1 .725 2.227.725 3.682 0 1.437-.236 2.659-.708 3.664-.471 1.006-1.113 1.773-1.926 2.302-.812.528-1.733.792-2.761.792-.75 0-1.372-.125-1.867-.375-.494-.25-.892-.551-1.193-.903a5.892 5.892 0 0 1-.69-1.014h-.179V546h-3.034Zm3.025-6.545c0 .846.12 1.588.358 2.224.245.636.594 1.133 1.049 1.491.46.353 1.017.529 1.67.529.682 0 1.253-.182 1.713-.546.46-.369.807-.872 1.04-1.508.238-.642.358-1.372.358-2.19 0-.813-.117-1.535-.35-2.165-.233-.631-.579-1.125-1.039-1.483-.461-.358-1.035-.537-1.722-.537-.659 0-1.219.173-1.679.52-.46.346-.81.832-1.048 1.457-.233.625-.35 1.361-.35 2.208Zm15.723 6.809c-.83 0-1.577-.148-2.242-.443a3.65 3.65 0 0 1-1.568-1.33c-.381-.585-.571-1.306-.571-2.164 0-.739.136-1.35.409-1.833a3.173 3.173 0 0 1 1.116-1.159 5.638 5.638 0 0 1 1.594-.656 12.995 12.995 0 0 1 1.85-.332c.767-.08 1.389-.151 1.866-.213.477-.069.824-.171 1.04-.307.221-.142.332-.361.332-.657v-.051c0-.642-.19-1.139-.571-1.491-.38-.352-.929-.529-1.645-.529-.755 0-1.355.165-1.798.495-.437.329-.733.718-.886 1.167l-2.881-.409c.227-.795.602-1.46 1.125-1.994a4.891 4.891 0 0 1 1.918-1.21c.755-.273 1.591-.409 2.505-.409.631 0 1.259.073 1.884.221a5.303 5.303 0 0 1 1.713.733c.517.335.932.793 1.244 1.372.318.58.478 1.304.478 2.174V546h-2.966v-1.798h-.103a3.756 3.756 0 0 1-.792 1.022c-.336.313-.759.566-1.27.759-.506.187-1.1.281-1.781.281Zm.801-2.267c.619 0 1.156-.122 1.611-.366.454-.25.803-.58 1.048-.989.25-.409.375-.855.375-1.338v-1.543c-.097.08-.262.154-.495.222a6.942 6.942 0 0 1-.767.179c-.284.051-.565.097-.843.136l-.725.103c-.46.062-.872.164-1.236.306a2.05 2.05 0 0 0-.86.597c-.211.25-.316.574-.316.972 0 .568.208.997.622 1.286.415.29.944.435 1.586.435Zm12.298-5.667V546h-3.085v-13.091h2.949v2.225h.153a3.743 3.743 0 0 1 1.44-1.748c.665-.431 1.486-.647 2.463-.647.904 0 1.691.193 2.361.579a3.906 3.906 0 0 1 1.568 1.679c.375.733.56 1.622.554 2.668V546h-3.085v-7.858c0-.875-.227-1.56-.682-2.054-.448-.494-1.071-.741-1.866-.741-.54 0-1.02.119-1.44.358a2.48 2.48 0 0 0-.981 1.014c-.233.443-.349.98-.349 1.611Zm27.115-4.986c-.079-.745-.415-1.324-1.006-1.739-.585-.415-1.346-.622-2.284-.622-.659 0-1.224.099-1.696.298-.471.199-.832.469-1.082.81-.25.341-.378.73-.384 1.168 0 .363.083.678.248.946.17.267.4.494.69.681.29.182.611.336.963.461s.707.23 1.065.315l1.637.409c.659.153 1.292.361 1.9.622a6.705 6.705 0 0 1 1.645.989c.489.398.875.878 1.159 1.44.284.563.426 1.222.426 1.977 0 1.023-.261 1.924-.784 2.702-.522.773-1.278 1.378-2.267 1.815-.983.432-2.173.648-3.571.648-1.358 0-2.537-.21-3.537-.63-.994-.421-1.772-1.035-2.335-1.841-.557-.807-.858-1.79-.903-2.949h3.11c.046.608.233 1.113.563 1.517.329.403.758.704 1.287.903a5.096 5.096 0 0 0 1.79.298c.687 0 1.289-.102 1.806-.306.523-.211.932-.5 1.228-.87.295-.375.446-.812.451-1.312-.005-.455-.139-.83-.4-1.125-.262-.301-.628-.551-1.1-.75a10.532 10.532 0 0 0-1.636-.546l-1.986-.511c-1.437-.369-2.574-.929-3.409-1.679-.829-.756-1.244-1.758-1.244-3.008 0-1.029.278-1.929.835-2.702.563-.773 1.327-1.372 2.293-1.798.966-.432 2.059-.648 3.281-.648 1.239 0 2.324.216 3.256.648.937.426 1.673 1.019 2.207 1.781.534.755.81 1.625.827 2.608h-3.043Zm11.674 12.912c-1.278 0-2.386-.282-3.324-.844-.937-.563-1.665-1.35-2.182-2.361-.511-1.011-.767-2.193-.767-3.545 0-1.353.256-2.537.767-3.554.517-1.017 1.245-1.807 2.182-2.37.938-.562 2.046-.843 3.324-.843s2.386.281 3.324.843c.937.563 1.662 1.353 2.173 2.37.517 1.017.776 2.201.776 3.554 0 1.352-.259 2.534-.776 3.545a5.68 5.68 0 0 1-2.173 2.361c-.938.562-2.046.844-3.324.844Zm.017-2.472c.693 0 1.273-.19 1.739-.571.466-.386.812-.903 1.04-1.551.232-.648.349-1.369.349-2.165 0-.801-.117-1.525-.349-2.173-.228-.654-.574-1.173-1.04-1.56-.466-.386-1.046-.579-1.739-.579-.71 0-1.301.193-1.773.579-.466.387-.815.906-1.048 1.56-.227.648-.341 1.372-.341 2.173 0 .796.114 1.517.341 2.165.233.648.582 1.165 1.048 1.551.472.381 1.063.571 1.773.571Zm17.218-3.29v-7.585h3.085V546h-2.991v-2.327h-.136a3.944 3.944 0 0 1-1.458 1.799c-.67.465-1.497.698-2.48.698-.858 0-1.616-.19-2.276-.571-.653-.386-1.164-.946-1.534-1.679-.369-.738-.554-1.63-.554-2.676v-8.335h3.086v7.858c0 .83.227 1.489.681 1.977.455.489 1.052.733 1.79.733.455 0 .895-.111 1.321-.332a2.691 2.691 0 0 0 1.049-.989c.278-.443.417-.997.417-1.662ZM706.94 546v-17.455h3.086v6.529h.127a5.73 5.73 0 0 1 .674-1.014c.289-.364.682-.674 1.176-.929.494-.262 1.125-.392 1.892-.392 1.011 0 1.923.258 2.736.775.818.512 1.466 1.27 1.943 2.276.483 1 .724 2.227.724 3.682 0 1.437-.235 2.659-.707 3.664-.472 1.006-1.114 1.773-1.926 2.302-.813.528-1.733.792-2.762.792-.75 0-1.372-.125-1.866-.375s-.892-.551-1.193-.903a5.846 5.846 0 0 1-.691-1.014h-.179V546h-3.034Zm3.026-6.545c0 .846.119 1.588.358 2.224.244.636.594 1.133 1.048 1.491.46.353 1.017.529 1.671.529.681 0 1.252-.182 1.713-.546.46-.369.807-.872 1.039-1.508.239-.642.358-1.372.358-2.19 0-.813-.116-1.535-.349-2.165-.233-.631-.58-1.125-1.04-1.483-.46-.358-1.034-.537-1.721-.537-.659 0-1.219.173-1.679.52-.461.346-.81.832-1.049 1.457-.233.625-.349 1.361-.349 2.208ZM721.921 546v-13.091h3.085V546h-3.085Zm1.551-14.949c-.488 0-.909-.162-1.261-.486-.352-.329-.528-.724-.528-1.184 0-.466.176-.861.528-1.185a1.78 1.78 0 0 1 1.261-.494c.495 0 .915.164 1.262.494.352.324.528.719.528 1.185 0 .46-.176.855-.528 1.184a1.781 1.781 0 0 1-1.262.486ZM728.179 546v-13.091h2.991v2.182h.137c.238-.756.648-1.338 1.227-1.747a3.376 3.376 0 0 1 2.003-.622c.17 0 .361.008.571.025.216.012.395.031.537.06v2.838a3.205 3.205 0 0 0-.622-.119 5.708 5.708 0 0 0-.81-.06c-.562 0-1.068.122-1.517.366a2.676 2.676 0 0 0-1.048.998c-.256.426-.384.917-.384 1.474V546h-3.085Zm13.048.264c-.829 0-1.576-.148-2.241-.443a3.65 3.65 0 0 1-1.568-1.33c-.381-.585-.571-1.306-.571-2.164 0-.739.136-1.35.409-1.833a3.165 3.165 0 0 1 1.116-1.159 5.638 5.638 0 0 1 1.594-.656 13.006 13.006 0 0 1 1.849-.332 77.48 77.48 0 0 0 1.867-.213c.477-.069.824-.171 1.04-.307.221-.142.332-.361.332-.657v-.051c0-.642-.19-1.139-.571-1.491-.381-.352-.929-.529-1.645-.529-.756 0-1.355.165-1.798.495-.438.329-.733.718-.887 1.167l-2.88-.409c.227-.795.602-1.46 1.125-1.994a4.888 4.888 0 0 1 1.917-1.21c.756-.273 1.591-.409 2.506-.409.631 0 1.259.073 1.884.221a5.303 5.303 0 0 1 1.713.733c.517.335.931.793 1.244 1.372.318.58.477 1.304.477 2.174V546h-2.966v-1.798h-.102a3.76 3.76 0 0 1-.793 1.022c-.335.313-.758.566-1.269.759-.506.187-1.1.281-1.782.281Zm.801-2.267c.62 0 1.157-.122 1.611-.366.455-.25.804-.58 1.049-.989.25-.409.374-.855.374-1.338v-1.543c-.096.08-.261.154-.494.222a6.996 6.996 0 0 1-.767.179c-.284.051-.565.097-.844.136l-.724.103c-.46.062-.872.164-1.236.306a2.06 2.06 0 0 0-.861.597c-.21.25-.315.574-.315.972 0 .568.207.997.622 1.286.415.29.943.435 1.585.435Zm12.299-5.667V546h-3.086v-13.091h2.949v2.225h.154a3.743 3.743 0 0 1 1.44-1.748c.665-.431 1.486-.647 2.463-.647.904 0 1.691.193 2.361.579a3.906 3.906 0 0 1 1.568 1.679c.375.733.56 1.622.554 2.668V546h-3.085v-7.858c0-.875-.227-1.56-.682-2.054-.449-.494-1.071-.741-1.866-.741-.54 0-1.02.119-1.441.358a2.477 2.477 0 0 0-.98 1.014c-.233.443-.349.98-.349 1.611Z"/>
  <path fill="#fff" d="M83 83h1034v357H83z"/>
  <path stroke="#000" stroke-width="6" d="M83 83h1034v357H83z"/>
  <text xml:space="preserve" fill="#000" font-family="Inter" font-size="60" font-weight="600" letter-spacing="0em" style="white-space:pre"><tspan x="140" y="198.318">{{line1}}</tspan></text>
  <text xml:space="preserve" fill="#000" font-family="Inter" font-size="60" font-weight="600" letter-spacing="0em" style="white-space:pre"><tspan x="140" y="283.318">{{line2}}</tspan></text>
  <text xml:space="preserve" fill="#000" font-family="Inter" font-size="60" font-weight="600" letter-spacing="0em" style="white-space:pre"><tspan x="140" y="368.318">{{line3}}</tspan></text>
</svg>
